<svg width="800" height="400" viewBox="0 0 800 400" fill="none" xmlns="http://www.w3.org/2000/svg">
  <rect width="800" height="400" rx="8" fill="#F0F4F8"/>
  <rect x="40" y="40" width="720" height="320" rx="4" fill="#FFFFFF" stroke="#E0E6ED" stroke-width="2"/>
  <rect x="60" y="60" width="200" height="20" rx="3" fill="#D9E2EC"/>
  <rect x="60" y="100" width="150" height="15" rx="2" fill="#D9E2EC"/>
  <rect x="60" y="130" width="180" height="15" rx="2" fill="#D9E2EC"/>
  <rect x="60" y="160" width="100" height="15" rx="2" fill="#D9E2EC"/>

  <rect x="300" y="60" width="460" height="280" rx="3" fill="#EBF2F7"/>
  <circle cx="320" cy="80" r="10" fill="#A7D9F0"/>
  <rect x="340" y="75" width="100" height="10" rx="2" fill="#A7D9F0"/>
  <rect x="320" y="100" width="420" height="15" rx="2" fill="#D9E2EC"/>
  <rect x="320" y="125" width="380" height="15" rx="2" fill="#D9E2EC"/>
  <rect x="320" y="150" width="400" height="15" rx="2" fill="#D9E2EC"/>

  <text x="400" y="380" font-family="Arial, sans-serif" font-size="18" fill="#6B7280" text-anchor="middle">Case Study Illustration</text>
</svg>