<svg xmlns="http://www.w3.org/2000/svg" width="200" height="200" viewBox="0 0 200 200" fill="none">
  <!-- Background circle -->
  <circle cx="100" cy="100" r="100" fill="#f0f4f8"/>
  
  <!-- Head -->
  <circle cx="100" cy="85" r="50" fill="#e2c196"/>
  
  <!-- Hair -->
  <path d="M60 70 Q100 30 140 70 L140 85 Q120 75 100 80 Q80 75 60 85 Z" fill="#4a3520"/>
  
  <!-- Eyes -->
  <ellipse cx="80" cy="75" rx="5" ry="3" fill="#3d3d3d"/>
  <ellipse cx="120" cy="75" rx="5" ry="3" fill="#3d3d3d"/>
  
  <!-- Eyebrows -->
  <path d="M75 68 Q80 65 85 68" stroke="#4a3520" stroke-width="2" stroke-linecap="round"/>
  <path d="M115 68 Q120 65 125 68" stroke="#4a3520" stroke-width="2" stroke-linecap="round"/>
  
  <!-- Nose -->
  <path d="M100 80 L103 90 Q100 95 97 90 Z" fill="#d9b38c"/>
  
  <!-- Mouth -->
  <path d="M85 100 Q100 110 115 100" stroke="#8e5a5a" stroke-width="2" stroke-linecap="round"/>
  
  <!-- Beard -->
  <path d="M70 95 Q100 130 130 95 L130 110 Q100 150 70 110 Z" fill="#4a3520" opacity="0.7"/>
  
  <!-- Suit -->
  <path d="M60 135 L60 200 L140 200 L140 135 Z" fill="#2c3e50"/>
  
  <!-- Shirt -->
  <path d="M85 135 L85 180 L115 180 L115 135 Z" fill="#ffffff"/>
  
  <!-- Tie -->
  <path d="M95 135 L90 150 L100 180 L110 150 L105 135 Z" fill="#4a6baf"/>
  
  <!-- Suit lapels -->
  <path d="M85 135 L75 150 L60 135 Z" fill="#1c2e40"/>
  <path d="M115 135 L125 150 L140 135 Z" fill="#1c2e40"/>
  
  <!-- Glasses -->
  <rect x="75" y="72" width="15" height="8" rx="2" stroke="#5a5a5a" stroke-width="1.5" fill="transparent"/>
  <rect x="110" y="72" width="15" height="8" rx="2" stroke="#5a5a5a" stroke-width="1.5" fill="transparent"/>
  <line x1="90" y1="76" x2="110" y2="76" stroke="#5a5a5a" stroke-width="1.5"/>
</svg>