<svg xmlns="http://www.w3.org/2000/svg" width="200" height="200" viewBox="0 0 200 200" fill="none">
  <!-- Background circle -->
  <circle cx="100" cy="100" r="100" fill="#f0f4f8"/>
  
  <!-- Head -->
  <circle cx="100" cy="85" r="50" fill="#e2c196"/>
  
  <!-- Hair -->
  <path d="M60 65 Q100 30 140 65 L140 85 Q120 75 100 80 Q80 75 60 85 Z" fill="#6b4f2e"/>
  <path d="M60 65 Q70 55 80 65" stroke="#6b4f2e" stroke-width="4" fill="transparent"/>
  
  <!-- Eyes -->
  <ellipse cx="80" cy="75" rx="5" ry="3" fill="#3d3d3d"/>
  <ellipse cx="120" cy="75" rx="5" ry="3" fill="#3d3d3d"/>
  
  <!-- Eyebrows -->
  <path d="M75 68 Q80 65 85 68" stroke="#6b4f2e" stroke-width="2" stroke-linecap="round"/>
  <path d="M115 68 Q120 65 125 68" stroke="#6b4f2e" stroke-width="2" stroke-linecap="round"/>
  
  <!-- Nose -->
  <path d="M100 80 L103 90 Q100 95 97 90 Z" fill="#d9b38c"/>
  
  <!-- Mouth -->
  <path d="M85 100 Q100 110 115 100" stroke="#8e5a5a" stroke-width="2" stroke-linecap="round"/>
  
  <!-- Business attire -->
  <path d="M60 135 L60 200 L140 200 L140 135 Z" fill="#34495e"/>
  
  <!-- Shirt -->
  <path d="M85 135 L85 180 L115 180 L115 135 Z" fill="#ffffff"/>
  
  <!-- Tie -->
  <path d="M95 135 L90 150 L100 180 L110 150 L105 135 Z" fill="#e74c3c"/>
  
  <!-- Suit lapels -->
  <path d="M85 135 L75 150 L60 135 Z" fill="#2c3e50"/>
  <path d="M115 135 L125 150 L140 135 Z" fill="#2c3e50"/>
  
  <!-- Operations icons -->
  <circle cx="70" cy="160" r="8" fill="#3498db" opacity="0.8"/>
  <circle cx="90" cy="160" r="8" fill="#2ecc71" opacity="0.8"/>
  <circle cx="110" cy="160" r="8" fill="#f1c40f" opacity="0.8"/>
  <circle cx="130" cy="160" r="8" fill="#e74c3c" opacity="0.8"/>
  
  <!-- Connection lines between operation icons -->
  <line x1="78" y1="160" x2="82" y2="160" stroke="#34495e" stroke-width="2"/>
  <line x1="98" y1="160" x2="102" y2="160" stroke="#34495e" stroke-width="2"/>
  <line x1="118" y1="160" x2="122" y2="160" stroke="#34495e" stroke-width="2"/>
</svg>