<svg xmlns="http://www.w3.org/2000/svg" width="48" height="48" viewBox="0 0 48 48" fill="none">
  <circle cx="24" cy="24" r="24" fill="#25D366"/>
  <path fill-rule="evenodd" clip-rule="evenodd" d="M24.7911 37.5H24.7822C22.2092 37.4989 19.6932 36.8015 17.4977 35.4761L10.5 37.5L12.5739 30.6881C11.1318 28.4276 10.3779 25.8225 10.3789 23.1526C10.3833 15.7803 16.6621 9.75 24.7911 9.75C28.7213 9.7522 32.3949 11.2736 35.1161 13.9126C37.8373 16.5516 39.3999 20.1225 39.3977 23.9371C39.3933 31.3105 33.1145 37.5 24.7911 37.5ZM17.7822 32.9393L18.2353 33.2109C20.1318 34.3792 22.3373 35.0016 24.7811 35.0027H24.7889C31.8477 35.0027 37.0066 30.0371 37.0099 23.9349C37.0121 20.7803 35.7213 17.8125 33.4 15.5582C31.0787 13.3038 28.0254 12.0483 24.8 12.0473C17.7344 12.0473 12.5744 17.0129 12.5711 23.1548C12.5701 25.7069 13.2744 28.1636 14.5977 30.2803L14.8844 30.7221L13.6611 34.7069L17.7822 32.9393ZM32.0254 26.8772C32.2344 26.9717 32.3711 27.0327 32.4322 27.1239C32.5066 27.2351 32.5066 27.8125 32.2977 28.4772C32.0877 29.1419 30.8 29.7419 30.2344 29.8364C29.7266 29.9222 29.0877 29.9563 28.3711 29.7419C27.9211 29.6136 27.3633 29.4419 26.6711 29.1636C23.9633 28.0327 22.1477 25.5582 21.7344 24.9717C21.7111 24.9394 21.6944 24.9163 21.6833 24.9019L21.6789 24.8969C21.5322 24.7136 20.5744 23.4772 20.5744 22.1969C20.5744 20.9827 21.2344 20.2803 21.5066 19.9849C21.5199 19.9705 21.5322 19.9572 21.5433 19.9449C21.7822 19.6839 22.0666 19.6059 22.2344 19.6059C22.4022 19.6059 22.5711 19.6081 22.7177 19.6169C22.7355 19.6181 22.7544 19.6169 22.7744 19.6158C22.9199 19.6092 23.0977 19.6015 23.2744 19.9849C23.3711 20.1969 23.5433 20.6169 23.7133 21.0327C23.8866 21.4539 24.0566 21.8683 24.1211 21.9959C24.2177 22.1969 24.2655 22.3979 24.1689 22.6327C24.1566 22.6605 24.1455 22.6872 24.1344 22.7136C24.0566 22.9136 23.9977 23.0772 23.8389 23.2636C23.7744 23.3417 23.7066 23.4253 23.6389 23.5089C23.5044 23.6761 23.3711 23.8417 23.2655 23.9449C23.0655 24.1459 22.8566 24.3636 23.0877 24.7647C23.3189 25.1659 24.0566 26.3459 25.1211 27.2959C26.3189 28.3979 27.3189 28.7647 27.8255 28.9649C27.9211 28.9979 27.9977 29.0249 28.0566 29.0481C28.4566 29.2491 28.6655 29.2259 28.8877 28.9649C29.1099 28.7039 29.8244 27.8772 30.0877 27.4761C30.3511 27.0749 30.6133 27.1239 30.9633 27.2491C31.3133 27.3744 32.5066 27.9649 32.8877 28.1659C32.9322 28.1881 32.9744 28.2092 33.0144 28.2292C33.2344 28.3417 33.3789 28.4163 33.4322 28.5059C33.4877 28.5981 33.4877 29.1239 33.2344 29.8772C32.9811 30.6305 31.5433 31.3979 30.7822 31.4459C30.7566 31.4481 30.7322 31.4503 30.7066 31.4525C30.0344 31.5059 29.2344 31.5703 26.5744 30.5703C23.2655 29.3417 21.1099 26.1659 20.7822 25.6969C20.7633 25.6703 20.7499 25.6525 20.7422 25.6425L20.7389 25.6381C20.6133 25.4761 19.5744 24.0749 19.5744 22.6327C19.5744 21.2491 20.3189 20.4459 20.6711 20.0749C20.6944 20.0492 20.7155 20.0259 20.7344 20.0049C21.0877 19.6059 21.5066 19.4761 21.7822 19.4761C22.0566 19.4761 22.3322 19.4761 22.5744 19.4871C22.6055 19.4883 22.6377 19.4871 22.6711 19.4859C22.8566 19.4783 23.0877 19.4693 23.3322 19.9649C23.4566 20.2259 23.6711 20.7039 23.8877 21.1839C24.0566 21.5703 24.2177 21.9459 24.2655 22.0481C24.3322 22.1481 24.4566 22.2491 24.3322 22.5703C24.2566 22.7491 24.1211 22.9981 23.9977 23.2259C23.9322 23.3349 23.8655 23.4481 23.8 23.5481C23.6566 23.7491 23.5066 23.9649 23.6711 24.1659C23.8344 24.3669 24.5744 25.5481 25.6711 26.5259C26.8566 27.5949 27.8566 28.0259 28.3322 28.2259C28.4566 28.2803 28.5566 28.3259 28.6344 28.3669C29.0344 28.5681 29.2344 28.5449 29.4566 28.2839C29.6789 28.0227 30.3322 27.2491 30.5744 26.8481C30.8155 26.4471 31.0566 26.4959 31.4055 26.6213C31.7566 26.7459 32.0254 26.8772 32.0254 26.8772Z" fill="white"/>
</svg>